<?xml version="1.0" encoding="UTF-8"?>
<svg width="69px" height="69px" viewBox="0 0 69 69" version="1.1" xmlns="http://www.w3.org/2000/svg" xmlns:xlink="http://www.w3.org/1999/xlink">
    <!-- Generator: Sketch 41.2 (35397) - http://www.bohemiancoding.com/sketch -->
    <title>1480278670_desktop copy</title>
    <desc>Created with Sketch.</desc>
    <defs>
        <ellipse id="path-1" cx="30.5" cy="30.5" rx="30.5" ry="30.5"></ellipse>
        <filter x="-50%" y="-50%" width="200%" height="200%" filterUnits="objectBoundingBox" id="filter-2">
            <feOffset dx="0" dy="2" in="SourceAlpha" result="shadowOffsetOuter1"></feOffset>
            <feGaussianBlur stdDeviation="2" in="shadowOffsetOuter1" result="shadowBlurOuter1"></feGaussianBlur>
            <feColorMatrix values="0 0 0 0 0.547140731   0 0 0 0 0.50532367   0 0 0 0 0.50532367  0 0 0 0.5 0" type="matrix" in="shadowBlurOuter1"></feColorMatrix>
        </filter>
    </defs>
    <g id="Page-1" stroke="none" stroke-width="1" fill="none" fill-rule="evenodd">
        <g id="First-step-Copy" transform="translate(-526.000000, -793.000000)">
            <g id="Group" transform="translate(403.000000, 474.000000)">
                <g id="Group-3" transform="translate(113.000000, 89.000000)">
                    <g id="1480278670_desktop-copy" transform="translate(13.922541, 232.000000)">
                        <g id="Слой_1">
                            <g id="Oval-Copy-4">
                                <use fill="black" fill-opacity="1" filter="url(#filter-2)" xlink:href="#path-1"></use>
                                <use fill="#89A2CE" fill-rule="evenodd" xlink:href="#path-1"></use>
                            </g>
                            <ellipse id="Oval" fill="#446CB3" cx="30" cy="30" rx="25" ry="25"></ellipse>
                            <path d="M41.7364754,14.9259086 L18.5990517,14.9259086 C16.1085651,14.9259086 14.1001082,16.8191263 14.1001082,19.1667162 L14.1001082,33.4794418 C14.1001082,35.8270317 16.1085651,37.7202493 18.5990517,37.7202493 C19.0810814,37.7202493 19.4024345,37.4173345 19.4024345,36.9629623 C19.4024345,36.50859 19.0810814,36.2056752 18.5990517,36.2056752 C16.9922862,36.2056752 15.7068738,34.9940159 15.7068738,33.4794418 L15.7068738,19.1667162 C15.7068738,17.6521421 16.9922862,16.4404828 18.5990517,16.4404828 L41.7364754,16.4404828 C43.3432409,16.4404828 44.6286533,17.6521421 44.6286533,19.1667162 L44.6286533,33.4794418 C44.6286533,34.9940159 43.3432409,36.2056752 41.7364754,36.2056752 L23.7407014,36.2056752 C23.33901,36.2056752 22.9373187,36.50859 22.9373187,36.9629623 L22.9373187,40.900855 L18.0366838,42.5668866 C17.3939776,42.7940727 16.9922862,43.3999023 17.0726245,44.0814607 C17.233301,44.7630191 17.7956689,45.2173913 18.5187134,45.2173913 L41.8168137,45.2173913 C42.5398582,45.2173913 43.1022261,44.7630191 43.2629026,44.0814607 C43.4235792,43.3999023 43.0218878,42.7940727 42.2988433,42.5668866 L37.3982084,40.900855 L37.3982084,37.7202493 L41.7364754,37.7202493 C44.226962,37.7202493 46.2354189,35.8270317 46.2354189,33.4794418 L46.2354189,19.1667162 C46.2354189,16.8191263 44.226962,14.9259086 41.7364754,14.9259086 Z M35.7914429,41.430956 C35.7914429,41.7338708 36.0324577,42.0367856 36.3538109,42.1125143 L40.9330926,43.7028172 L19.4827728,43.7028172 L23.901378,42.188243 L32.7385884,42.188243 C33.1402798,42.188243 33.5419712,41.8853282 33.5419712,41.430956 C33.5419712,40.9765837 33.1402798,40.6736689 32.7385884,40.6736689 L24.5440842,40.6736689 L24.5440842,37.7202493 L35.7914429,37.7202493 L35.7914429,41.430956 Z" id="Shape" fill="#FFFFFF"></path>
                            <path d="M32.1762205,34.6911011 L28.1593066,34.6911011 C27.677277,34.6911011 27.3559239,34.3881862 27.3559239,33.933814 C27.3559239,33.4794418 27.677277,33.1765269 28.1593066,33.1765269 L32.1762205,33.1765269 C32.6582501,33.1765269 32.9796032,33.4794418 32.9796032,33.933814 C32.9796032,34.3881862 32.5779118,34.6911011 32.1762205,34.6911011 Z" id="Shape" fill="#FFFFFF"></path>
                        </g>
                    </g>
                </g>
            </g>
        </g>
    </g>
</svg>