<?xml version="1.0" encoding="UTF-8"?>
<svg width="71px" height="70px" viewBox="0 0 71 70" version="1.1" xmlns="http://www.w3.org/2000/svg" xmlns:xlink="http://www.w3.org/1999/xlink">
    <!-- Generator: Sketch 41.2 (35397) - http://www.bohemiancoding.com/sketch -->
    <title>Group 4</title>
    <desc>Created with Sketch.</desc>
    <defs>
        <ellipse id="path-1" cx="31.0806647" cy="31.3746962" rx="30.9193353" ry="30.9193353"></ellipse>
        <filter x="-50%" y="-50%" width="200%" height="200%" filterUnits="objectBoundingBox" id="filter-2">
            <feOffset dx="0" dy="2" in="SourceAlpha" result="shadowOffsetOuter1"></feOffset>
            <feGaussianBlur stdDeviation="2" in="shadowOffsetOuter1" result="shadowBlurOuter1"></feGaussianBlur>
            <feColorMatrix values="0 0 0 0 0.787521259   0 0 0 0 0.723013125   0 0 0 0 0.723013125  0 0 0 0.5 0" type="matrix" in="shadowBlurOuter1"></feColorMatrix>
        </filter>
    </defs>
    <g id="Page-1" stroke="none" stroke-width="1" fill="none" fill-rule="evenodd">
        <g id="First-step-Copy" transform="translate(-526.000000, -573.000000)">
            <g id="Group" transform="translate(403.000000, 474.000000)">
                <g id="Group-3" transform="translate(113.000000, 89.000000)">
                    <g id="Group-4">
                        <g id="1480278230_key" transform="translate(44.077459, 43.301933) rotate(-33.000000) translate(-44.077459, -43.301933) translate(13.077459, 11.801933)">
                            <g id="Слой_1" transform="translate(-0.000000, -0.000000)">
                                <g id="Oval-Copy">
                                    <use fill="black" fill-opacity="1" filter="url(#filter-2)" xlink:href="#path-1"></use>
                                    <use fill="#C3D2E4" fill-rule="evenodd" xlink:href="#path-1"></use>
                                </g>
                                <circle id="Oval" fill="#4990E2" cx="31" cy="31" r="25"></circle>
                            </g>
                        </g>
                        <g id="1480280130_social" transform="translate(28.922541, 26.000000)" fill="#FFFFFF">
                            <g id="Слой_1">
                                <path d="M26.3707317,8.9925 C25.3756098,8.9925 24.3804878,9.1575 23.3853659,9.57 C22.9707317,9.735 22.804878,10.23 22.9707317,10.6425 C23.1365854,11.055 23.6341463,11.22 24.0487805,11.055 C24.795122,10.725 25.5414634,10.56 26.3707317,10.56 C29.604878,10.56 32.2585366,13.2 32.2585366,16.4175 C32.2585366,19.635 29.604878,22.275 26.3707317,22.275 C23.1365854,22.275 20.4829268,19.635 20.4829268,16.4175 C20.4829268,15.9225 20.0682927,15.5925 19.6536585,15.5925 C19.2390244,15.5925 18.8243902,15.9225 18.8243902,16.4175 C18.8243902,17.49 19.0731707,18.5625 19.4878049,19.5525 L9.6195122,24.915 C8.70731707,23.8425 7.29756098,23.1 5.72195122,23.1 C2.98536585,23.1 0.746341463,25.3275 0.746341463,28.05 C0.746341463,30.7725 2.98536585,33 5.72195122,33 C8.45853659,33 10.697561,30.7725 10.697561,28.05 C10.697561,27.4725 10.6146341,26.895 10.4487805,26.4 L20.3170732,20.955 C21.7268293,22.77 23.8829268,24.0075 26.3707317,24.0075 C30.5170732,24.0075 33.9170732,20.625 33.9170732,16.5 C33.9170732,12.375 30.5170732,8.9925 26.3707317,8.9925 Z M5.72195122,31.35 C3.89756098,31.35 2.40487805,29.865 2.40487805,28.05 C2.40487805,26.235 3.89756098,24.75 5.72195122,24.75 C6.96585366,24.75 8.04390244,25.41 8.62439024,26.4825 L8.62439024,26.4825 L8.62439024,26.4825 C8.87317073,26.9775 9.03902439,27.4725 9.03902439,28.05 C9.03902439,29.865 7.54634146,31.35 5.72195122,31.35 Z" id="Shape"></path>
                                <path d="M26.7853659,15.7575 L10.3658537,6.6 C10.5317073,6.105 10.697561,5.5275 10.697561,4.95 C10.697561,2.2275 8.45853659,0 5.72195122,0 C2.98536585,0 0.746341463,2.2275 0.746341463,4.95 C0.746341463,7.6725 2.98536585,9.9 5.72195122,9.9 C7.29756098,9.9 8.62439024,9.1575 9.6195122,8.085 L25.9560976,17.2425 C26.1219512,17.325 26.204878,17.325 26.3707317,17.325 C26.6195122,17.325 26.9512195,17.16 27.1170732,16.9125 C27.2829268,16.5 27.1170732,16.005 26.7853659,15.7575 Z M8.87317073,5.775 L6.13658537,4.2075 C5.72195122,4.0425 5.22439024,4.125 4.97560976,4.5375 C4.72682927,4.95 4.89268293,5.445 5.30731707,5.6925 L8.12682927,7.26 C7.46341463,7.8375 6.63414634,8.25 5.72195122,8.25 C3.89756098,8.25 2.40487805,6.765 2.40487805,4.95 C2.40487805,3.135 3.89756098,1.65 5.72195122,1.65 C7.54634146,1.65 9.03902439,3.135 9.03902439,4.95 C9.03902439,5.28 8.95609756,5.5275 8.87317073,5.775 Z" id="Shape"></path>
                            </g>
                        </g>
                    </g>
                </g>
            </g>
        </g>
    </g>
</svg>