<?xml version="1.0" encoding="UTF-8"?>
<svg width="71px" height="70px" viewBox="0 0 71 70" version="1.1" xmlns="http://www.w3.org/2000/svg" xmlns:xlink="http://www.w3.org/1999/xlink">
    <!-- Generator: Sketch 41.2 (35397) - http://www.bohemiancoding.com/sketch -->
    <title>1480278230_key copy</title>
    <desc>Created with Sketch.</desc>
    <defs>
        <circle id="path-1" cx="30.93826" cy="31.1944421" r="30.93826"></circle>
        <filter x="-50%" y="-50%" width="200%" height="200%" filterUnits="objectBoundingBox" id="filter-2">
            <feOffset dx="0" dy="2" in="SourceAlpha" result="shadowOffsetOuter1"></feOffset>
            <feGaussianBlur stdDeviation="2" in="shadowOffsetOuter1" result="shadowBlurOuter1"></feGaussianBlur>
            <feColorMatrix values="0 0 0 0 0.641315901   0 0 0 0 0.597058424   0 0 0 0 0.597058424  0 0 0 0.5 0" type="matrix" in="shadowBlurOuter1"></feColorMatrix>
        </filter>
    </defs>
    <g id="Page-1" stroke="none" stroke-width="1" fill="none" fill-rule="evenodd">
        <g id="First-step-Copy" transform="translate(-526.000000, -646.000000)">
            <g id="Group" transform="translate(403.000000, 474.000000)">
                <g id="Group-3" transform="translate(113.000000, 89.000000)">
                    <g id="1480278230_key-copy" transform="translate(44.077459, 116.301933) rotate(-33.000000) translate(-44.077459, -116.301933) translate(13.077459, 84.801933)">
                        <g id="Слой_1" transform="translate(-0.000000, -0.000000)">
                            <g id="Oval-Copy-2">
                                <use fill="black" fill-opacity="1" filter="url(#filter-2)" xlink:href="#path-1"></use>
                                <use fill="#AAC0E6" fill-rule="evenodd" xlink:href="#path-1"></use>
                            </g>
                            <circle id="Oval" fill="#446CB3" cx="31" cy="31" r="25"></circle>
                            <path d="M21.4570917,40.0355321 C19.0564154,40.0355321 16.5557109,39.1083525 14.7552036,37.1509733 C11.054161,33.3392348 11.054161,27.0550172 14.7552036,23.2432787 C18.0561336,19.84362 23.257599,19.4315402 27.0586698,22.2130791 C27.4587826,22.522139 27.5588107,23.2432787 27.2587262,23.6553585 C26.9586417,24.0674384 26.3584726,24.1704583 25.8583317,23.8613985 C22.8574863,21.5949594 18.7563309,21.9040192 16.1555982,24.6855581 C13.2547809,27.673137 13.2547809,32.618095 16.1555982,35.6056739 C19.0564154,38.5932527 23.8577681,38.5932527 26.7585853,35.6056739 C26.8586135,35.5026539 26.9586417,35.3996339 27.0586698,35.193594 C27.4587826,34.7815142 28.0589516,34.6784942 28.4590644,35.0905741 C28.8591771,35.5026539 28.9592053,36.1207737 28.5590925,36.5328535 C28.4590644,36.7388934 28.259008,36.8419134 28.1589798,36.9449333 C26.2584444,39.1083525 23.8577681,40.0355321 21.4570917,40.0355321 Z" id="Shape" fill="#FFFFFF"></path>
                            <path d="M21.715416,34.6735427 C20.615106,34.6735427 19.514796,34.2614479 18.7145706,33.3342345 C17.9143452,32.5100448 17.4142043,31.3767839 17.4142043,30.243523 C17.4142043,29.1102622 17.814317,27.9770013 18.7145706,27.1528116 C19.514796,26.3286219 20.615106,25.8135033 21.715416,25.8135033 C22.815726,25.8135033 23.916036,26.2255982 24.7162614,27.1528116 C25.1163741,27.5649065 25.1163741,28.1830488 24.7162614,28.5951436 C24.3161487,29.0072385 23.7159796,29.0072385 23.3158669,28.5951436 C22.4156133,27.6679302 20.9151906,27.6679302 20.1149651,28.5951436 C19.7148524,29.0072385 19.4147679,29.6253808 19.4147679,30.243523 C19.4147679,30.8616653 19.6148242,31.4798076 20.1149651,31.8919025 C21.0152187,32.8191159 22.5156415,32.8191159 23.3158669,31.8919025 C23.7159796,31.4798076 24.3161487,31.4798076 24.7162614,31.8919025 C25.1163741,32.3039973 25.1163741,32.9221396 24.7162614,33.3342345 C23.916036,34.2614479 22.815726,34.6735427 21.715416,34.6735427 Z" id="Shape" fill="#FFFFFF"></path>
                            <path d="M47.6025617,36.375456 C46.2021672,36.375456 45.50197,35.535895 45.0018291,35.0111693 C44.5016882,34.4864437 44.3016318,34.2765534 43.8014909,34.2765534 C43.30135,34.2765534 43.1012936,34.4864437 42.6011527,35.0111693 C42.1010118,35.6408401 41.4008146,36.375456 40.00042,36.375456 C38.6000255,36.375456 37.8998282,35.535895 37.3996873,35.0111693 C36.8995464,34.4864437 36.6994901,34.2765534 36.1993492,34.2765534 C35.6992083,34.2765534 35.4991519,34.4864437 34.999011,35.0111693 C34.4988701,35.6408401 33.7986729,36.375456 32.3982783,36.375456 C30.9978838,36.375456 30.2976865,35.535895 29.7975456,35.0111693 C29.3974329,34.5913888 29.1973766,34.3814986 28.897292,34.2765534 C28.3971511,34.1716083 27.9970384,33.5419375 28.0970666,33.0172119 C28.1970948,32.4924863 28.7972638,32.0727058 29.2974047,32.1776509 C30.1976584,32.3875411 30.7978274,33.0172119 31.1979402,33.4369924 C31.6980811,33.9617181 31.8981374,34.1716083 32.3982783,34.1716083 C32.8984192,34.1716083 33.0984756,33.9617181 33.5986165,33.4369924 C34.0987574,32.8073217 34.7989547,32.0727058 36.1993492,32.0727058 C37.5997437,32.0727058 38.299941,32.9122668 38.8000819,33.4369924 C39.3002228,33.9617181 39.5002791,34.1716083 40.00042,34.1716083 C40.5005609,34.1716083 40.7006173,33.9617181 41.2007582,33.4369924 C41.7008991,32.8073217 42.4010964,32.0727058 43.8014909,32.0727058 C45.2018854,32.0727058 45.9020827,32.9122668 46.4022236,33.4369924 C46.7023081,33.7518278 46.9023645,33.9617181 47.1024208,34.0666632 L49.403069,30.4985288 L47.1024208,26.8254494 L28.1970948,26.8254494 C27.5969257,26.8254494 27.1968129,26.4056689 27.1968129,25.7759981 C27.1968129,25.1463273 27.5969257,24.7265468 28.1970948,24.7265468 L47.6025617,24.7265468 C47.9026463,24.7265468 48.2027308,24.9364371 48.4027872,25.1463273 L51.4036326,29.8688581 C51.603689,30.1836935 51.603689,30.7084191 51.4036326,31.0232545 L48.4027872,35.7457852 C48.2027308,36.2705109 47.9026463,36.375456 47.6025617,36.375456 Z" id="Shape" fill="#FFFFFF"></path>
                        </g>
                    </g>
                </g>
            </g>
        </g>
    </g>
</svg>