<?xml version="1.0" encoding="UTF-8"?>
<svg width="18px" height="18px" viewBox="0 0 18 18" version="1.1" xmlns="http://www.w3.org/2000/svg" xmlns:xlink="http://www.w3.org/1999/xlink">
    <!-- Generator: Sketch 41.2 (35397) - http://www.bohemiancoding.com/sketch -->
    <title>Group</title>
    <desc>Created with Sketch.</desc>
    <defs>
        <linearGradient x1="50%" y1="0%" x2="50%" y2="100%" id="linearGradient-1">
            <stop stop-color="#F8F8F8" offset="0%"></stop>
            <stop stop-color="#FFFFFF" offset="100%"></stop>
        </linearGradient>
    </defs>
    <g id="Symbols" stroke="none" stroke-width="1" fill="none" fill-rule="evenodd">
        <g id="Apps-Top-Bar" transform="translate(-1398.000000, -57.000000)" fill="url(#linearGradient-1)">
            <g id="Group-2" transform="translate(1398.000000, 57.000000)">
                <g id="Group">
                    <path d="M14.8921875,7.5890625 C14.8921875,3.0140625 12.43125,1.4578125 10.1296875,1.1109375 C10.1296875,1.0875 10.134375,1.0640625 10.134375,1.0359375 C10.134375,0.459375 9.6234375,0 9,0 C8.3765625,0 7.884375,0.459375 7.884375,1.0359375 C7.884375,1.0640625 7.884375,1.0875 7.8890625,1.1109375 C5.5828125,1.4625 3.1078125,3.0234375 3.1078125,7.5984375 C3.1078125,12.9328125 1.78125,13.5046875 0,15.0046875 L18,15.0046875 C16.228125,13.5 14.8921875,12.9234375 14.8921875,7.5890625 Z" id="Shape"></path>
                    <path d="M9.009375,18 C10.265625,18 11.296875,17.0671875 11.4328125,15.984375 L6.5859375,15.984375 C6.7171875,17.0671875 7.753125,18 9.009375,18 Z" id="Shape"></path>
                </g>
            </g>
        </g>
    </g>
</svg>